<svg version="1.2" id="Layer_1" xmlns="http://www.w3.org/2000/svg" xmlns:xlink="http://www.w3.org/1999/xlink" xml:space="preserve" baseProfile="tiny-ps">
    <title>Platinum Host Logo</title>
	<path fill="#FDFDFF" stroke="none" d="
M104.000000,181.000000 
	C69.333336,181.000000 35.166672,181.000000 1.000005,181.000000 
	C1.000003,121.000008 1.000003,61.000011 1.000002,1.000013 
	C60.999989,1.000008 120.999977,1.000008 180.999969,1.000004 
	C180.999985,60.999985 180.999985,120.999969 181.000000,180.999969 
	C155.500000,181.000000 130.000000,181.000000 104.000000,181.000000 
M149.690125,19.496895 
	C146.606567,18.933161 143.524750,17.890450 140.439209,17.879354 
	C107.463120,17.760780 74.486397,17.770321 41.509964,17.822855 
	C28.462702,17.843639 19.900251,26.384178 19.879049,39.402401 
	C19.825344,72.378815 19.825066,105.355446 19.878649,138.331863 
	C19.899706,151.291107 28.560066,159.944336 41.523739,159.964905 
	C74.500168,160.017242 107.476807,160.021423 140.453217,159.962280 
	C153.342728,159.939148 161.996582,151.192780 162.017029,138.203568 
	C162.068710,105.393692 162.002777,72.583626 162.056122,39.773754 
	C162.070770,30.773556 158.407578,24.071194 149.690125,19.496895 
z"/>
<path fill="#3F3AF1" stroke="none" 
	d="
M150.040665,19.670319 
	C158.407578,24.071194 162.070770,30.773556 162.056122,39.773754 
	C162.002777,72.583626 162.068710,105.393692 162.017029,138.203568 
	C161.996582,151.192780 153.342728,159.939148 140.453217,159.962280 
	C107.476807,160.021423 74.500168,160.017242 41.523739,159.964905 
	C28.560066,159.944336 19.899706,151.291107 19.878649,138.331863 
	C19.825066,105.355446 19.825344,72.378815 19.879049,39.402401 
	C19.900251,26.384178 28.462702,17.843639 41.509964,17.822855 
	C74.486397,17.770321 107.463120,17.760780 140.439209,17.879354 
	C143.524750,17.890450 146.606567,18.933161 150.040665,19.670319 
M64.112640,70.279663 
	C70.500038,73.499474 77.201843,76.230026 83.186821,80.076057 
	C89.227585,83.957932 93.935966,82.486206 99.094307,78.176178 
	C93.915977,75.550209 88.878387,72.995605 83.044701,70.037292 
	C95.305061,64.102921 106.505005,58.681824 118.520798,52.865829 
	C114.084961,50.718639 110.811134,49.103443 107.511246,47.543354 
	C101.798538,44.842545 96.035873,40.006336 90.356934,40.094799 
	C84.479630,40.186352 78.643364,45.002613 72.849586,47.874184 
	C64.242996,52.139877 55.689587,56.512878 46.276093,61.262760 
	C52.577690,64.459663 58.006065,67.213570 64.112640,70.279663 
M128.921646,117.262207 
	C134.931152,114.251083 135.571442,112.067604 133.535370,101.380913 
	C130.140244,101.961952 128.082367,103.620369 128.562424,107.376472 
	C128.969147,110.558952 127.264664,112.034760 124.568077,113.345688 
	C114.250206,118.361679 104.101860,123.728683 93.746513,128.663040 
	C91.979858,129.504852 89.154030,129.618332 87.422440,128.795410 
	C76.612038,123.657860 65.909210,118.279251 55.348049,112.647972 
	C53.777214,111.810402 52.248623,109.213463 52.258797,107.439392 
	C52.280220,103.702835 50.806828,101.947617 46.842346,101.290215 
	C46.721249,103.642487 46.823215,105.954094 46.441517,108.182869 
	C45.646755,112.823509 47.470036,115.285759 51.770245,117.300537 
	C63.510162,122.801079 75.039520,128.761093 86.543098,134.748856 
	C89.377678,136.224289 91.611359,136.173019 94.416458,134.716904 
	C105.631798,128.895035 116.967171,123.304382 128.921646,117.262207 
M70.886879,102.720940 
	C65.832153,100.169014 60.833248,97.496704 55.699089,95.116081 
	C53.141747,93.930290 51.542984,92.523773 52.072426,89.486511 
	C52.733921,85.691734 50.667992,84.043732 46.637489,83.337883 
	C46.637489,86.659477 46.815231,89.811577 46.583794,92.933342 
	C46.382198,95.652649 47.330479,97.103111 49.824024,98.323616 
	C62.388809,104.473656 74.809738,110.918518 87.400002,117.014450 
	C89.036591,117.806854 91.698799,117.879181 93.312569,117.099022 
	C106.055763,110.938461 118.676987,104.523605 131.277725,98.073677 
	C132.439651,97.478935 133.919159,96.159027 134.014069,95.068214 
	C134.348633,91.222176 134.144180,87.329247 134.144180,83.365189 
	C129.698303,84.037186 128.632629,86.179314 128.622330,89.765564 
	C128.617554,91.430298 127.194542,93.853424 125.725784,94.629608 
	C114.979591,100.308601 104.099731,105.742401 93.144745,111.009567 
	C91.641762,111.732185 89.234596,111.686249 87.685997,111.001373 
	C82.208954,108.579079 76.922974,105.724770 70.886879,102.720940 
M59.366573,85.102554 
	C68.575752,89.738548 77.735802,94.477516 87.038971,98.916527 
	C88.732857,99.724762 91.388702,100.090714 92.960472,99.333084 
	C105.990471,93.052246 118.885139,86.488831 131.765564,79.902992 
	C132.771881,79.388466 133.967361,78.099136 134.036133,77.098518 
	C134.301056,73.243767 134.143600,69.359985 134.143600,65.322731 
	C129.824966,66.100677 128.666946,68.078033 128.563980,71.710861 
	C128.510239,73.606766 126.727806,76.247551 124.991608,77.171387 
	C114.729530,82.631836 104.315491,87.822983 93.787827,92.752914 
	C91.898422,93.637703 88.878220,93.646881 86.997696,92.756287 
	C76.480217,87.775314 66.200180,82.295364 55.727993,77.214737 
	C52.922489,75.853630 51.594368,74.229286 52.062782,71.097923 
	C52.610329,67.437561 50.574436,66.032692 47.236485,65.821922 
	C45.412762,78.101952 45.413113,78.101250 56.026661,83.425499 
	C56.918407,83.872841 57.801075,84.338264 59.366573,85.102554 
M120.226509,70.646027 
	C120.239006,72.210564 119.999542,73.850388 120.429733,75.290123 
	C120.546715,75.681618 122.989517,75.938171 123.805702,75.403328 
	C124.623169,74.867645 125.360970,72.514450 125.056618,72.263336 
	C123.887054,71.298378 122.285362,70.857185 120.226509,70.646027 
M123.946274,93.338524 
	C124.034592,91.761185 124.322174,90.149574 124.061218,88.632309 
	C124.001266,88.283707 121.746651,87.769196 121.055855,88.206291 
	C120.136543,88.787971 119.047707,90.957863 119.269753,91.174103 
	C120.381409,92.256638 121.897568,92.923798 123.946274,93.338524 
M119.349533,107.797249 
	C120.142632,109.174118 120.782791,110.698517 121.853035,111.808044 
	C122.077118,112.040352 124.257294,110.983139 124.843979,110.073692 
	C125.289108,109.383682 124.793671,107.115677 124.442825,107.051689 
	C122.932938,106.776291 121.321938,107.055313 119.349533,107.797249 
z"/>
<path fill="#F8F7FE" stroke="none" 
	d="
M63.773540,70.123566 
	C58.006065,67.213570 52.577690,64.459663 46.276093,61.262760 
	C55.689587,56.512878 64.242996,52.139877 72.849586,47.874184 
	C78.643364,45.002613 84.479630,40.186352 90.356934,40.094799 
	C96.035873,40.006336 101.798538,44.842545 107.511246,47.543354 
	C110.811134,49.103443 114.084961,50.718639 118.520798,52.865829 
	C106.505005,58.681824 95.305061,64.102921 83.044701,70.037292 
	C88.878387,72.995605 93.915977,75.550209 99.094307,78.176178 
	C93.935966,82.486206 89.227585,83.957932 83.186821,80.076057 
	C77.201843,76.230026 70.500038,73.499474 63.773540,70.123566 
M83.695129,60.229755 
	C89.379974,57.360817 95.064819,54.491882 100.749672,51.622944 
	C98.165123,49.639324 95.036850,47.517342 93.107269,48.310722 
	C83.839012,52.121506 74.894630,56.719994 65.590469,61.155453 
	C70.187439,65.112549 74.400383,66.147331 79.062004,62.635464 
	C80.235649,61.751289 81.705475,61.260258 83.695129,60.229755 
z"/>
<path fill="#F2F2FE" stroke="none" 
	d="
M128.589890,117.445190 
	C116.967171,123.304382 105.631798,128.895035 94.416458,134.716904 
	C91.611359,136.173019 89.377678,136.224289 86.543098,134.748856 
	C75.039520,128.761093 63.510162,122.801079 51.770245,117.300537 
	C47.470036,115.285759 45.646755,112.823509 46.441517,108.182869 
	C46.823215,105.954094 46.721249,103.642487 46.842346,101.290215 
	C50.806828,101.947617 52.280220,103.702835 52.258797,107.439392 
	C52.248623,109.213463 53.777214,111.810402 55.348049,112.647972 
	C65.909210,118.279251 76.612038,123.657860 87.422440,128.795410 
	C89.154030,129.618332 91.979858,129.504852 93.746513,128.663040 
	C104.101860,123.728683 114.250206,118.361679 124.568077,113.345688 
	C127.264664,112.034760 128.969147,110.558952 128.562424,107.376472 
	C128.082367,103.620369 130.140244,101.961952 133.535370,101.380913 
	C135.571442,112.067604 134.931152,114.251083 128.589890,117.445190 
z"/>
<path fill="#F3F2FE" stroke="none" 
	d="
M71.225723,102.877586 
	C76.922974,105.724770 82.208954,108.579079 87.685997,111.001373 
	C89.234596,111.686249 91.641762,111.732185 93.144745,111.009567 
	C104.099731,105.742401 114.979591,100.308601 125.725784,94.629608 
	C127.194542,93.853424 128.617554,91.430298 128.622330,89.765564 
	C128.632629,86.179314 129.698303,84.037186 134.144180,83.365189 
	C134.144180,87.329247 134.348633,91.222176 134.014069,95.068214 
	C133.919159,96.159027 132.439651,97.478935 131.277725,98.073677 
	C118.676987,104.523605 106.055763,110.938461 93.312569,117.099022 
	C91.698799,117.879181 89.036591,117.806854 87.400002,117.014450 
	C74.809738,110.918518 62.388809,104.473656 49.824024,98.323616 
	C47.330479,97.103111 46.382198,95.652649 46.583794,92.933342 
	C46.815231,89.811577 46.637489,86.659477 46.637489,83.337883 
	C50.667992,84.043732 52.733921,85.691734 52.072426,89.486511 
	C51.542984,92.523773 53.141747,93.930290 55.699089,95.116081 
	C60.833248,97.496704 65.832153,100.169014 71.225723,102.877586 
z"/>
<path fill="#F4F3FE" stroke="none" 
	d="
M59.027267,84.948929 
	C57.801075,84.338264 56.918407,83.872841 56.026661,83.425499 
	C45.413113,78.101250 45.412762,78.101952 47.236485,65.821922 
	C50.574436,66.032692 52.610329,67.437561 52.062782,71.097923 
	C51.594368,74.229286 52.922489,75.853630 55.727993,77.214737 
	C66.200180,82.295364 76.480217,87.775314 86.997696,92.756287 
	C88.878220,93.646881 91.898422,93.637703 93.787827,92.752914 
	C104.315491,87.822983 114.729530,82.631836 124.991608,77.171387 
	C126.727806,76.247551 128.510239,73.606766 128.563980,71.710861 
	C128.666946,68.078033 129.824966,66.100677 134.143600,65.322731 
	C134.143600,69.359985 134.301056,73.243767 134.036133,77.098518 
	C133.967361,78.099136 132.771881,79.388466 131.765564,79.902992 
	C118.885139,86.488831 105.990471,93.052246 92.960472,99.333084 
	C91.388702,100.090714 88.732857,99.724762 87.038971,98.916527 
	C77.735802,94.477516 68.575752,89.738548 59.027267,84.948929 
z"/>
<path fill="#E6E5FD" stroke="none" 
	d="
M120.535675,70.433334 
	C122.285362,70.857185 123.887054,71.298378 125.056618,72.263336 
	C125.360970,72.514450 124.623169,74.867645 123.805702,75.403328 
	C122.989517,75.938171 120.546715,75.681618 120.429733,75.290123 
	C119.999542,73.850388 120.239006,72.210564 120.535675,70.433334 
z"/>
<path fill="#EBEBFE" stroke="none" 
	d="
M123.608902,93.537750 
	C121.897568,92.923798 120.381409,92.256638 119.269753,91.174103 
	C119.047707,90.957863 120.136543,88.787971 121.055855,88.206291 
	C121.746651,87.769196 124.001266,88.283707 124.061218,88.632309 
	C124.322174,90.149574 124.034592,91.761185 123.608902,93.537750 
z"/>
<path fill="#EBEBFE" stroke="none" 
	d="
M119.548645,107.464828 
	C121.321938,107.055313 122.932938,106.776291 124.442825,107.051689 
	C124.793671,107.115677 125.289108,109.383682 124.843979,110.073692 
	C124.257294,110.983139 122.077118,112.040352 121.853035,111.808044 
	C120.782791,110.698517 120.142632,109.174118 119.548645,107.464828 
z"/>
<path fill="#4540F2" stroke="none" 
	d="
M83.367157,60.409157 
	C81.705475,61.260258 80.235649,61.751289 79.062004,62.635464 
	C74.400383,66.147331 70.187439,65.112549 65.590469,61.155453 
	C74.894630,56.719994 83.839012,52.121506 93.107269,48.310722 
	C95.036850,47.517342 98.165123,49.639324 100.749672,51.622944 
	C95.064819,54.491882 89.379974,57.360817 83.367157,60.409157 
z"/>
</svg>