<?xml version="1.0" standalone="no"?>
<!DOCTYPE svg PUBLIC "-//W3C//DTD SVG 20010904//EN"
 "http://www.w3.org/TR/2001/REC-SVG-20010904/DTD/svg10.dtd">
<svg version="1.0" xmlns="http://www.w3.org/2000/svg"
 width="512.000000pt" height="512.000000pt" viewBox="0 0 512.000000 512.000000"
 preserveAspectRatio="xMidYMid meet">
<metadata>
Created by potrace 1.14, written by Peter Selinger 2001-2017
</metadata>
<g transform="translate(0.000000,512.000000) scale(0.100000,-0.100000)"
fill="#000000" stroke="none">
<path d="M965 4621 c-149 -43 -288 -154 -357 -287 -73 -138 -68 -20 -68 -1714
0 -1691 -4 -1577 66 -1711 64 -122 189 -229 327 -281 l62 -23 1533 -3 c1700
-3 1594 -7 1734 64 144 73 270 235 303 391 12 57 15 305 15 1568 0 1652 3
1559 -62 1694 -44 91 -169 216 -258 259 -136 66 -30 62 -1710 61 -1414 0
-1529 -2 -1585 -18z m1969 -779 c214 -103 389 -191 390 -197 0 -5 -223 -118
-498 -250 l-498 -240 235 -115 c130 -63 236 -118 236 -121 1 -4 -59 -37 -131
-74 l-133 -68 -360 181 c-198 99 -479 241 -624 315 l-264 135 619 310 c341
171 624 311 629 311 6 0 185 -84 399 -187z m-1553 -579 l68 -37 3 -110 3 -111
545 -274 545 -274 542 274 543 274 0 110 0 111 75 37 c42 20 78 37 80 37 3 0
5 -87 5 -194 l0 -194 -615 -311 c-339 -171 -623 -311 -632 -311 -8 0 -292 140
-629 311 l-614 310 0 195 c0 107 3 194 6 194 4 0 37 -17 75 -37z m2125 -127
c73 -62 -2 -179 -91 -142 -62 26 -74 89 -26 137 37 36 79 38 117 5z m-2125
-383 l68 -38 3 -110 3 -110 545 -274 545 -274 542 272 542 272 3 111 3 112 70
38 c39 21 73 38 78 38 4 0 7 -87 7 -194 l0 -194 -622 -315 -623 -315 -620 313
-620 314 -3 195 c-1 108 0 196 4 196 3 0 37 -17 75 -37z m2125 -127 c57 -49
22 -146 -53 -146 -46 0 -68 13 -83 49 -36 88 64 159 136 97z m-2125 -383 l68
-37 3 -110 3 -111 545 -274 545 -274 542 273 542 272 3 112 3 111 70 37 c39
21 73 38 78 38 4 0 7 -87 7 -194 l0 -194 -615 -311 c-339 -171 -623 -311 -631
-311 -17 0 -1222 606 -1241 624 -8 8 -10 61 -6 199 3 103 8 187 11 187 2 0 35
-17 73 -37z m2115 -118 c12 -8 27 -28 34 -45 37 -89 -90 -160 -150 -83 -59 75
39 183 116 128z"/>
<path d="M2228 3597 c-219 -106 -398 -194 -398 -198 0 -3 50 -30 111 -59 l111
-54 407 204 406 203 -104 48 c-57 27 -111 49 -120 48 -9 -1 -195 -87 -413
-192z"/>
</g>
</svg>
